<svg width="375" height="667" viewBox="0 0 375 667" fill="none" xmlns="http://www.w3.org/2000/svg">
<rect width="375" height="667" fill="#E5E5E5"/>
<rect width="375" height="667" fill="white"/>
<rect x="24" y="84" width="37" height="37" rx="5" fill="#B985CB"/>
<rect x="72" y="84" width="37" height="37" rx="5" fill="#90CC81"/>
<rect x="120" y="84" width="37" height="37" rx="5" fill="#79A1D0"/>
<rect x="169" y="84" width="37" height="37" rx="5" fill="#C4C4C4"/>
<rect x="217" y="84" width="37" height="37" rx="5" fill="#C4C4C4"/>
<rect x="265" y="84" width="37" height="37" rx="5" fill="#C4C4C4"/>
<rect x="313" y="84" width="37" height="37" rx="5" fill="#C4C4C4"/>
<rect x="24" y="133" width="37" height="37" rx="5" fill="#C4C4C4"/>
<rect x="72" y="133" width="37" height="37" rx="5" fill="#C4C4C4"/>
<rect x="120" y="133" width="37" height="37" rx="5" fill="#C4C4C4"/>
<rect x="169" y="133" width="37" height="37" rx="5" fill="#C4C4C4"/>
<rect x="217" y="133" width="37" height="37" rx="5" fill="#C4C4C4"/>
<rect x="265" y="133" width="37" height="37" rx="5" fill="#C4C4C4"/>
<rect x="313" y="133" width="37" height="37" rx="5" fill="#C4C4C4"/>
<path d="M148.566 271H137.387V269.441L143.293 262.879C144.168 261.887 144.77 261.082 145.098 260.465C145.434 259.84 145.602 259.195 145.602 258.531C145.602 257.641 145.332 256.91 144.793 256.34C144.254 255.77 143.535 255.484 142.637 255.484C141.559 255.484 140.719 255.793 140.117 256.41C139.523 257.02 139.227 257.871 139.227 258.965H137.059C137.059 257.395 137.562 256.125 138.57 255.156C139.586 254.188 140.941 253.703 142.637 253.703C144.223 253.703 145.477 254.121 146.398 254.957C147.32 255.785 147.781 256.891 147.781 258.273C147.781 259.953 146.711 261.953 144.57 264.273L140 269.23H148.566V271ZM161.562 263.723C161.562 266.262 161.129 268.148 160.262 269.383C159.395 270.617 158.039 271.234 156.195 271.234C154.375 271.234 153.027 270.633 152.152 269.43C151.277 268.219 150.824 266.414 150.793 264.016V261.121C150.793 258.613 151.227 256.75 152.094 255.531C152.961 254.312 154.32 253.703 156.172 253.703C158.008 253.703 159.359 254.293 160.227 255.473C161.094 256.645 161.539 258.457 161.562 260.91V263.723ZM159.395 260.758C159.395 258.922 159.137 257.586 158.621 256.75C158.105 255.906 157.289 255.484 156.172 255.484C155.062 255.484 154.254 255.902 153.746 256.738C153.238 257.574 152.977 258.859 152.961 260.594V264.062C152.961 265.906 153.227 267.27 153.758 268.152C154.297 269.027 155.109 269.465 156.195 269.465C157.266 269.465 158.059 269.051 158.574 268.223C159.098 267.395 159.371 266.09 159.395 264.309V260.758ZM177.898 267.637C177.898 267.051 177.676 266.598 177.23 266.277C176.793 265.949 176.023 265.668 174.922 265.434C173.828 265.199 172.957 264.918 172.309 264.59C171.668 264.262 171.191 263.871 170.879 263.418C170.574 262.965 170.422 262.426 170.422 261.801C170.422 260.762 170.859 259.883 171.734 259.164C172.617 258.445 173.742 258.086 175.109 258.086C176.547 258.086 177.711 258.457 178.602 259.199C179.5 259.941 179.949 260.891 179.949 262.047H177.77C177.77 261.453 177.516 260.941 177.008 260.512C176.508 260.082 175.875 259.867 175.109 259.867C174.32 259.867 173.703 260.039 173.258 260.383C172.812 260.727 172.59 261.176 172.59 261.73C172.59 262.254 172.797 262.648 173.211 262.914C173.625 263.18 174.371 263.434 175.449 263.676C176.535 263.918 177.414 264.207 178.086 264.543C178.758 264.879 179.254 265.285 179.574 265.762C179.902 266.23 180.066 266.805 180.066 267.484C180.066 268.617 179.613 269.527 178.707 270.215C177.801 270.895 176.625 271.234 175.18 271.234C174.164 271.234 173.266 271.055 172.484 270.695C171.703 270.336 171.09 269.836 170.645 269.195C170.207 268.547 169.988 267.848 169.988 267.098H172.156C172.195 267.824 172.484 268.402 173.023 268.832C173.57 269.254 174.289 269.465 175.18 269.465C176 269.465 176.656 269.301 177.148 268.973C177.648 268.637 177.898 268.191 177.898 267.637ZM185.246 271H183.078V258.32H185.246V271ZM182.902 254.957C182.902 254.605 183.008 254.309 183.219 254.066C183.438 253.824 183.758 253.703 184.18 253.703C184.602 253.703 184.922 253.824 185.141 254.066C185.359 254.309 185.469 254.605 185.469 254.957C185.469 255.309 185.359 255.602 185.141 255.836C184.922 256.07 184.602 256.188 184.18 256.188C183.758 256.188 183.438 256.07 183.219 255.836C183.008 255.602 182.902 255.309 182.902 254.957ZM191.668 255.25V258.32H194.035V259.996H191.668V267.859C191.668 268.367 191.773 268.75 191.984 269.008C192.195 269.258 192.555 269.383 193.062 269.383C193.312 269.383 193.656 269.336 194.094 269.242V271C193.523 271.156 192.969 271.234 192.43 271.234C191.461 271.234 190.73 270.941 190.238 270.355C189.746 269.77 189.5 268.938 189.5 267.859V259.996H187.191V258.32H189.5V255.25H191.668ZM204.406 269.746C203.562 270.738 202.324 271.234 200.691 271.234C199.34 271.234 198.309 270.844 197.598 270.062C196.895 269.273 196.539 268.109 196.531 266.57V258.32H198.699V266.512C198.699 268.434 199.48 269.395 201.043 269.395C202.699 269.395 203.801 268.777 204.348 267.543V258.32H206.516V271H204.453L204.406 269.746ZM220.531 264.801C220.531 266.73 220.09 268.285 219.207 269.465C218.324 270.645 217.129 271.234 215.621 271.234C214.082 271.234 212.871 270.746 211.988 269.77V275.875H209.82V258.32H211.801L211.906 259.727C212.789 258.633 214.016 258.086 215.586 258.086C217.109 258.086 218.312 258.66 219.195 259.809C220.086 260.957 220.531 262.555 220.531 264.602V264.801ZM218.363 264.555C218.363 263.125 218.059 261.996 217.449 261.168C216.84 260.34 216.004 259.926 214.941 259.926C213.629 259.926 212.645 260.508 211.988 261.672V267.73C212.637 268.887 213.629 269.465 214.965 269.465C216.004 269.465 216.828 269.055 217.438 268.234C218.055 267.406 218.363 266.18 218.363 264.555ZM230.68 267.637C230.68 267.051 230.457 266.598 230.012 266.277C229.574 265.949 228.805 265.668 227.703 265.434C226.609 265.199 225.738 264.918 225.09 264.59C224.449 264.262 223.973 263.871 223.66 263.418C223.355 262.965 223.203 262.426 223.203 261.801C223.203 260.762 223.641 259.883 224.516 259.164C225.398 258.445 226.523 258.086 227.891 258.086C229.328 258.086 230.492 258.457 231.383 259.199C232.281 259.941 232.73 260.891 232.73 262.047H230.551C230.551 261.453 230.297 260.941 229.789 260.512C229.289 260.082 228.656 259.867 227.891 259.867C227.102 259.867 226.484 260.039 226.039 260.383C225.594 260.727 225.371 261.176 225.371 261.73C225.371 262.254 225.578 262.648 225.992 262.914C226.406 263.18 227.152 263.434 228.23 263.676C229.316 263.918 230.195 264.207 230.867 264.543C231.539 264.879 232.035 265.285 232.355 265.762C232.684 266.23 232.848 266.805 232.848 267.484C232.848 268.617 232.395 269.527 231.488 270.215C230.582 270.895 229.406 271.234 227.961 271.234C226.945 271.234 226.047 271.055 225.266 270.695C224.484 270.336 223.871 269.836 223.426 269.195C222.988 268.547 222.77 267.848 222.77 267.098H224.938C224.977 267.824 225.266 268.402 225.805 268.832C226.352 269.254 227.07 269.465 227.961 269.465C228.781 269.465 229.438 269.301 229.93 268.973C230.43 268.637 230.68 268.191 230.68 267.637Z" fill="black"/>
<rect x="22" y="216" width="326" height="93" rx="5" fill="#F9C236" fill-opacity="0.5"/>
<rect x="22" y="184" width="326" height="32" rx="5" fill="#FEAD33"/>
<path d="M52.3555 208H50.1055V190.938H52.3555V208ZM73.3203 205.012L75.7578 195.32H77.9258L74.2344 208H72.4766L69.3945 198.391L66.3945 208H64.6367L60.957 195.32H63.1133L65.6094 204.812L68.5625 195.32H70.3086L73.3203 205.012ZM87.9688 208C87.8438 207.75 87.7422 207.305 87.6641 206.664C86.6562 207.711 85.4531 208.234 84.0547 208.234C82.8047 208.234 81.7773 207.883 80.9727 207.18C80.1758 206.469 79.7773 205.57 79.7773 204.484C79.7773 203.164 80.2773 202.141 81.2773 201.414C82.2852 200.68 83.6992 200.312 85.5195 200.312H87.6289V199.316C87.6289 198.559 87.4023 197.957 86.9492 197.512C86.4961 197.059 85.8281 196.832 84.9453 196.832C84.1719 196.832 83.5234 197.027 83 197.418C82.4766 197.809 82.2148 198.281 82.2148 198.836H80.0352C80.0352 198.203 80.2578 197.594 80.7031 197.008C81.1562 196.414 81.7656 195.945 82.5312 195.602C83.3047 195.258 84.1523 195.086 85.0742 195.086C86.5352 195.086 87.6797 195.453 88.5078 196.188C89.3359 196.914 89.7656 197.918 89.7969 199.199V205.035C89.7969 206.199 89.9453 207.125 90.2422 207.812V208H87.9688ZM84.3711 206.348C85.0508 206.348 85.6953 206.172 86.3047 205.82C86.9141 205.469 87.3555 205.012 87.6289 204.449V201.848H85.9297C83.2734 201.848 81.9453 202.625 81.9453 204.18C81.9453 204.859 82.1719 205.391 82.625 205.773C83.0781 206.156 83.6602 206.348 84.3711 206.348ZM95.2461 195.32L95.3164 196.914C96.2852 195.695 97.5508 195.086 99.1133 195.086C101.793 195.086 103.145 196.598 103.168 199.621V208H101V199.609C100.992 198.695 100.781 198.02 100.367 197.582C99.9609 197.145 99.3242 196.926 98.457 196.926C97.7539 196.926 97.1367 197.113 96.6055 197.488C96.0742 197.863 95.6602 198.355 95.3633 198.965V208H93.1953V195.32H95.2461ZM109.379 192.25V195.32H111.746V196.996H109.379V204.859C109.379 205.367 109.484 205.75 109.695 206.008C109.906 206.258 110.266 206.383 110.773 206.383C111.023 206.383 111.367 206.336 111.805 206.242V208C111.234 208.156 110.68 208.234 110.141 208.234C109.172 208.234 108.441 207.941 107.949 207.355C107.457 206.77 107.211 205.938 107.211 204.859V196.996H104.902V195.32H107.211V192.25H109.379ZM123.184 192.25V195.32H125.551V196.996H123.184V204.859C123.184 205.367 123.289 205.75 123.5 206.008C123.711 206.258 124.07 206.383 124.578 206.383C124.828 206.383 125.172 206.336 125.609 206.242V208C125.039 208.156 124.484 208.234 123.945 208.234C122.977 208.234 122.246 207.941 121.754 207.355C121.262 206.77 121.016 205.938 121.016 204.859V196.996H118.707V195.32H121.016V192.25H123.184ZM127.285 201.543C127.285 200.301 127.527 199.184 128.012 198.191C128.504 197.199 129.184 196.434 130.051 195.895C130.926 195.355 131.922 195.086 133.039 195.086C134.766 195.086 136.16 195.684 137.223 196.879C138.293 198.074 138.828 199.664 138.828 201.648V201.801C138.828 203.035 138.59 204.145 138.113 205.129C137.645 206.105 136.969 206.867 136.086 207.414C135.211 207.961 134.203 208.234 133.062 208.234C131.344 208.234 129.949 207.637 128.879 206.441C127.816 205.246 127.285 203.664 127.285 201.695V201.543ZM129.465 201.801C129.465 203.207 129.789 204.336 130.438 205.188C131.094 206.039 131.969 206.465 133.062 206.465C134.164 206.465 135.039 206.035 135.688 205.176C136.336 204.309 136.66 203.098 136.66 201.543C136.66 200.152 136.328 199.027 135.664 198.168C135.008 197.301 134.133 196.867 133.039 196.867C131.969 196.867 131.105 197.293 130.449 198.145C129.793 198.996 129.465 200.215 129.465 201.801ZM149.855 208H147.688V190H149.855V208ZM152.762 201.543C152.762 200.301 153.004 199.184 153.488 198.191C153.98 197.199 154.66 196.434 155.527 195.895C156.402 195.355 157.398 195.086 158.516 195.086C160.242 195.086 161.637 195.684 162.699 196.879C163.77 198.074 164.305 199.664 164.305 201.648V201.801C164.305 203.035 164.066 204.145 163.59 205.129C163.121 206.105 162.445 206.867 161.562 207.414C160.688 207.961 159.68 208.234 158.539 208.234C156.82 208.234 155.426 207.637 154.355 206.441C153.293 205.246 152.762 203.664 152.762 201.695V201.543ZM154.941 201.801C154.941 203.207 155.266 204.336 155.914 205.188C156.57 206.039 157.445 206.465 158.539 206.465C159.641 206.465 160.516 206.035 161.164 205.176C161.812 204.309 162.137 203.098 162.137 201.543C162.137 200.152 161.805 199.027 161.141 198.168C160.484 197.301 159.609 196.867 158.516 196.867C157.445 196.867 156.582 197.293 155.926 198.145C155.27 198.996 154.941 200.215 154.941 201.801ZM166.449 201.543C166.449 200.301 166.691 199.184 167.176 198.191C167.668 197.199 168.348 196.434 169.215 195.895C170.09 195.355 171.086 195.086 172.203 195.086C173.93 195.086 175.324 195.684 176.387 196.879C177.457 198.074 177.992 199.664 177.992 201.648V201.801C177.992 203.035 177.754 204.145 177.277 205.129C176.809 206.105 176.133 206.867 175.25 207.414C174.375 207.961 173.367 208.234 172.227 208.234C170.508 208.234 169.113 207.637 168.043 206.441C166.98 205.246 166.449 203.664 166.449 201.695V201.543ZM168.629 201.801C168.629 203.207 168.953 204.336 169.602 205.188C170.258 206.039 171.133 206.465 172.227 206.465C173.328 206.465 174.203 206.035 174.852 205.176C175.5 204.309 175.824 203.098 175.824 201.543C175.824 200.152 175.492 199.027 174.828 198.168C174.172 197.301 173.297 196.867 172.203 196.867C171.133 196.867 170.27 197.293 169.613 198.145C168.957 198.996 168.629 200.215 168.629 201.801ZM184.25 202.129L182.891 203.547V208H180.723V190H182.891V200.887L184.051 199.492L188 195.32H190.637L185.703 200.617L191.211 208H188.668L184.25 202.129ZM198.312 201.555C198.312 199.578 198.77 198.008 199.684 196.844C200.598 195.672 201.809 195.086 203.316 195.086C204.863 195.086 206.07 195.633 206.938 196.727L207.043 195.32H209.023V207.695C209.023 209.336 208.535 210.629 207.559 211.574C206.59 212.52 205.285 212.992 203.645 212.992C202.73 212.992 201.836 212.797 200.961 212.406C200.086 212.016 199.418 211.48 198.957 210.801L200.082 209.5C201.012 210.648 202.148 211.223 203.492 211.223C204.547 211.223 205.367 210.926 205.953 210.332C206.547 209.738 206.844 208.902 206.844 207.824V206.734C205.977 207.734 204.793 208.234 203.293 208.234C201.809 208.234 200.605 207.637 199.684 206.441C198.77 205.246 198.312 203.617 198.312 201.555ZM200.492 201.801C200.492 203.23 200.785 204.355 201.371 205.176C201.957 205.988 202.777 206.395 203.832 206.395C205.199 206.395 206.203 205.773 206.844 204.531V198.742C206.18 197.531 205.184 196.926 203.855 196.926C202.801 196.926 201.977 197.336 201.383 198.156C200.789 198.977 200.492 200.191 200.492 201.801ZM211.73 201.543C211.73 200.301 211.973 199.184 212.457 198.191C212.949 197.199 213.629 196.434 214.496 195.895C215.371 195.355 216.367 195.086 217.484 195.086C219.211 195.086 220.605 195.684 221.668 196.879C222.738 198.074 223.273 199.664 223.273 201.648V201.801C223.273 203.035 223.035 204.145 222.559 205.129C222.09 206.105 221.414 206.867 220.531 207.414C219.656 207.961 218.648 208.234 217.508 208.234C215.789 208.234 214.395 207.637 213.324 206.441C212.262 205.246 211.73 203.664 211.73 201.695V201.543ZM213.91 201.801C213.91 203.207 214.234 204.336 214.883 205.188C215.539 206.039 216.414 206.465 217.508 206.465C218.609 206.465 219.484 206.035 220.133 205.176C220.781 204.309 221.105 203.098 221.105 201.543C221.105 200.152 220.773 199.027 220.109 198.168C219.453 197.301 218.578 196.867 217.484 196.867C216.414 196.867 215.551 197.293 214.895 198.145C214.238 198.996 213.91 200.215 213.91 201.801ZM225.418 201.543C225.418 200.301 225.66 199.184 226.145 198.191C226.637 197.199 227.316 196.434 228.184 195.895C229.059 195.355 230.055 195.086 231.172 195.086C232.898 195.086 234.293 195.684 235.355 196.879C236.426 198.074 236.961 199.664 236.961 201.648V201.801C236.961 203.035 236.723 204.145 236.246 205.129C235.777 206.105 235.102 206.867 234.219 207.414C233.344 207.961 232.336 208.234 231.195 208.234C229.477 208.234 228.082 207.637 227.012 206.441C225.949 205.246 225.418 203.664 225.418 201.695V201.543ZM227.598 201.801C227.598 203.207 227.922 204.336 228.57 205.188C229.227 206.039 230.102 206.465 231.195 206.465C232.297 206.465 233.172 206.035 233.82 205.176C234.469 204.309 234.793 203.098 234.793 201.543C234.793 200.152 234.461 199.027 233.797 198.168C233.141 197.301 232.266 196.867 231.172 196.867C230.102 196.867 229.238 197.293 228.582 198.145C227.926 198.996 227.598 200.215 227.598 201.801ZM239.152 201.555C239.152 199.609 239.613 198.047 240.535 196.867C241.457 195.68 242.664 195.086 244.156 195.086C245.641 195.086 246.816 195.594 247.684 196.609V190H249.852V208H247.859L247.754 206.641C246.887 207.703 245.68 208.234 244.133 208.234C242.664 208.234 241.465 207.633 240.535 206.43C239.613 205.227 239.152 203.656 239.152 201.719V201.555ZM241.32 201.801C241.32 203.238 241.617 204.363 242.211 205.176C242.805 205.988 243.625 206.395 244.672 206.395C246.047 206.395 247.051 205.777 247.684 204.543V198.719C247.035 197.523 246.039 196.926 244.695 196.926C243.633 196.926 242.805 197.336 242.211 198.156C241.617 198.977 241.32 200.191 241.32 201.801ZM261.23 195.32L261.301 196.914C262.27 195.695 263.535 195.086 265.098 195.086C267.777 195.086 269.129 196.598 269.152 199.621V208H266.984V199.609C266.977 198.695 266.766 198.02 266.352 197.582C265.945 197.145 265.309 196.926 264.441 196.926C263.738 196.926 263.121 197.113 262.59 197.488C262.059 197.863 261.645 198.355 261.348 198.965V208H259.18V195.32H261.23ZM280.25 208C280.125 207.75 280.023 207.305 279.945 206.664C278.938 207.711 277.734 208.234 276.336 208.234C275.086 208.234 274.059 207.883 273.254 207.18C272.457 206.469 272.059 205.57 272.059 204.484C272.059 203.164 272.559 202.141 273.559 201.414C274.566 200.68 275.98 200.312 277.801 200.312H279.91V199.316C279.91 198.559 279.684 197.957 279.23 197.512C278.777 197.059 278.109 196.832 277.227 196.832C276.453 196.832 275.805 197.027 275.281 197.418C274.758 197.809 274.496 198.281 274.496 198.836H272.316C272.316 198.203 272.539 197.594 272.984 197.008C273.438 196.414 274.047 195.945 274.812 195.602C275.586 195.258 276.434 195.086 277.355 195.086C278.816 195.086 279.961 195.453 280.789 196.188C281.617 196.914 282.047 197.918 282.078 199.199V205.035C282.078 206.199 282.227 207.125 282.523 207.812V208H280.25ZM276.652 206.348C277.332 206.348 277.977 206.172 278.586 205.82C279.195 205.469 279.637 205.012 279.91 204.449V201.848H278.211C275.555 201.848 274.227 202.625 274.227 204.18C274.227 204.859 274.453 205.391 274.906 205.773C275.359 206.156 275.941 206.348 276.652 206.348ZM289.016 202.129L287.656 203.547V208H285.488V190H287.656V200.887L288.816 199.492L292.766 195.32H295.402L290.469 200.617L295.977 208H293.434L289.016 202.129ZM302.668 208.234C300.949 208.234 299.551 207.672 298.473 206.547C297.395 205.414 296.855 203.902 296.855 202.012V201.613C296.855 200.355 297.094 199.234 297.57 198.25C298.055 197.258 298.727 196.484 299.586 195.93C300.453 195.367 301.391 195.086 302.398 195.086C304.047 195.086 305.328 195.629 306.242 196.715C307.156 197.801 307.613 199.355 307.613 201.379V202.281H299.023C299.055 203.531 299.418 204.543 300.113 205.316C300.816 206.082 301.707 206.465 302.785 206.465C303.551 206.465 304.199 206.309 304.73 205.996C305.262 205.684 305.727 205.27 306.125 204.754L307.449 205.785C306.387 207.418 304.793 208.234 302.668 208.234ZM302.398 196.867C301.523 196.867 300.789 197.188 300.195 197.828C299.602 198.461 299.234 199.352 299.094 200.5H305.445V200.336C305.383 199.234 305.086 198.383 304.555 197.781C304.023 197.172 303.305 196.867 302.398 196.867ZM309.605 201.555C309.605 199.609 310.066 198.047 310.988 196.867C311.91 195.68 313.117 195.086 314.609 195.086C316.094 195.086 317.27 195.594 318.137 196.609V190H320.305V208H318.312L318.207 206.641C317.34 207.703 316.133 208.234 314.586 208.234C313.117 208.234 311.918 207.633 310.988 206.43C310.066 205.227 309.605 203.656 309.605 201.719V201.555ZM311.773 201.801C311.773 203.238 312.07 204.363 312.664 205.176C313.258 205.988 314.078 206.395 315.125 206.395C316.5 206.395 317.504 205.777 318.137 204.543V198.719C317.488 197.523 316.492 196.926 315.148 196.926C314.086 196.926 313.258 197.336 312.664 198.156C312.07 198.977 311.773 200.191 311.773 201.801Z" fill="black"/>
<path d="M140.922 49.6211L141.25 51.8711L141.73 49.8438L145.105 37.9375H147.004L150.297 49.8438L150.766 51.9062L151.129 49.6094L153.777 37.9375H156.039L151.902 55H149.852L146.336 42.5664L146.066 41.2656L145.797 42.5664L142.152 55H140.102L135.977 37.9375H138.227L140.922 49.6211ZM163.094 55.2344C161.375 55.2344 159.977 54.6719 158.898 53.5469C157.82 52.4141 157.281 50.9023 157.281 49.0117V48.6133C157.281 47.3555 157.52 46.2344 157.996 45.25C158.48 44.2578 159.152 43.4844 160.012 42.9297C160.879 42.3672 161.816 42.0859 162.824 42.0859C164.473 42.0859 165.754 42.6289 166.668 43.7148C167.582 44.8008 168.039 46.3555 168.039 48.3789V49.2812H159.449C159.48 50.5312 159.844 51.543 160.539 52.3164C161.242 53.082 162.133 53.4648 163.211 53.4648C163.977 53.4648 164.625 53.3086 165.156 52.9961C165.688 52.6836 166.152 52.2695 166.551 51.7539L167.875 52.7852C166.812 54.418 165.219 55.2344 163.094 55.2344ZM162.824 43.8672C161.949 43.8672 161.215 44.1875 160.621 44.8281C160.027 45.4609 159.66 46.3516 159.52 47.5H165.871V47.3359C165.809 46.2344 165.512 45.3828 164.98 44.7812C164.449 44.1719 163.73 43.8672 162.824 43.8672ZM170.031 48.5547C170.031 46.6094 170.492 45.0469 171.414 43.8672C172.336 42.6797 173.543 42.0859 175.035 42.0859C176.52 42.0859 177.695 42.5938 178.562 43.6094V37H180.73V55H178.738L178.633 53.6406C177.766 54.7031 176.559 55.2344 175.012 55.2344C173.543 55.2344 172.344 54.6328 171.414 53.4297C170.492 52.2266 170.031 50.6562 170.031 48.7188V48.5547ZM172.199 48.8008C172.199 50.2383 172.496 51.3633 173.09 52.1758C173.684 52.9883 174.504 53.3945 175.551 53.3945C176.926 53.3945 177.93 52.7773 178.562 51.543V45.7188C177.914 44.5234 176.918 43.9258 175.574 43.9258C174.512 43.9258 173.684 44.3359 173.09 45.1562C172.496 45.9766 172.199 47.1914 172.199 48.8008ZM200.852 39.1562L193.785 55H191.512L198.555 39.7188H189.32V37.9375H200.852V39.1562ZM203.969 56.4648H202.105L209.23 37.9375H211.082L203.969 56.4648ZM224.383 55H213.203V53.4414L219.109 46.8789C219.984 45.8867 220.586 45.082 220.914 44.4648C221.25 43.8398 221.418 43.1953 221.418 42.5312C221.418 41.6406 221.148 40.9102 220.609 40.3398C220.07 39.7695 219.352 39.4844 218.453 39.4844C217.375 39.4844 216.535 39.793 215.934 40.4102C215.34 41.0195 215.043 41.8711 215.043 42.9648H212.875C212.875 41.3945 213.379 40.125 214.387 39.1562C215.402 38.1875 216.758 37.7031 218.453 37.7031C220.039 37.7031 221.293 38.1211 222.215 38.957C223.137 39.7852 223.598 40.8906 223.598 42.2734C223.598 43.9531 222.527 45.9531 220.387 48.2734L215.816 53.2305H224.383V55ZM237.027 42.3906C237.027 43.2422 236.801 44 236.348 44.6641C235.902 45.3281 235.297 45.8477 234.531 46.2227C235.422 46.6055 236.125 47.1641 236.641 47.8984C237.164 48.6328 237.426 49.4648 237.426 50.3945C237.426 51.8711 236.926 53.0469 235.926 53.9219C234.934 54.7969 233.625 55.2344 232 55.2344C230.359 55.2344 229.043 54.7969 228.051 53.9219C227.066 53.0391 226.574 51.8633 226.574 50.3945C226.574 49.4727 226.824 48.6406 227.324 47.8984C227.832 47.1562 228.531 46.5938 229.422 46.2109C228.664 45.8359 228.066 45.3164 227.629 44.6523C227.191 43.9883 226.973 43.2344 226.973 42.3906C226.973 40.9531 227.434 39.8125 228.355 38.9688C229.277 38.125 230.492 37.7031 232 37.7031C233.5 37.7031 234.711 38.125 235.633 38.9688C236.562 39.8125 237.027 40.9531 237.027 42.3906ZM235.258 50.3477C235.258 49.3945 234.953 48.6172 234.344 48.0156C233.742 47.4141 232.953 47.1133 231.977 47.1133C231 47.1133 230.215 47.4102 229.621 48.0039C229.035 48.5977 228.742 49.3789 228.742 50.3477C228.742 51.3164 229.027 52.0781 229.598 52.6328C230.176 53.1875 230.977 53.4648 232 53.4648C233.016 53.4648 233.812 53.1875 234.391 52.6328C234.969 52.0703 235.258 51.3086 235.258 50.3477ZM232 39.4844C231.148 39.4844 230.457 39.75 229.926 40.2812C229.402 40.8047 229.141 41.5195 229.141 42.4258C229.141 43.293 229.398 43.9961 229.914 44.5352C230.438 45.0664 231.133 45.332 232 45.332C232.867 45.332 233.559 45.0664 234.074 44.5352C234.598 43.9961 234.859 43.293 234.859 42.4258C234.859 41.5586 234.59 40.8516 234.051 40.3047C233.512 39.7578 232.828 39.4844 232 39.4844Z" fill="black"/>
</svg>
